<svg width="28" height="27" viewBox="0 0 28 27" fill="none" xmlns="http://www.w3.org/2000/svg">
<path d="M21.874 10.9233V10.1306C21.874 5.77826 18.3487 2.25 14 2.25C9.65132 2.25 6.12602 5.77826 6.12602 10.1306V10.9233C6.12602 11.8746 5.84467 12.8046 5.31743 13.5961L4.02542 15.5357C2.84529 17.3074 3.74622 19.7155 5.79876 20.2758C11.1682 21.7414 16.8318 21.7414 22.2012 20.2758C24.2538 19.7155 25.1547 17.3074 23.9746 15.5357L22.6826 13.5961C22.1553 12.8046 21.874 11.8746 21.874 10.9233Z" stroke="#A4A4A4" stroke-width="1.5"/>
<path d="M8.75 21.375C9.5142 23.3413 11.5762 24.75 14 24.75C16.4238 24.75 18.4858 23.3413 19.25 21.375" stroke="#A4A4A4" stroke-width="1.5" stroke-linecap="round"/>
</svg>
