<svg width="28" height="28" viewBox="0 0 28 28" fill="none" xmlns="http://www.w3.org/2000/svg">
<path fill-rule="evenodd" clip-rule="evenodd" d="M14.0002 1.4585C9.00663 1.4585 4.95854 5.50659 4.95854 10.5002V11.3216C4.95854 12.1347 4.71787 12.9296 4.26686 13.6061L2.92682 15.6161C1.37154 17.9491 2.55887 21.1201 5.26389 21.8578C6.14544 22.0982 7.03443 22.3016 7.92857 22.4679L7.93079 22.4739C8.82795 24.8678 11.2258 26.5418 14.0001 26.5418C16.7745 26.5418 19.1723 24.8678 20.0695 22.4739L20.0717 22.468C20.9659 22.3016 21.8549 22.0983 22.7365 21.8578C25.4416 21.1201 26.6289 17.9491 25.0736 15.6162L23.7336 13.6061C23.2825 12.9296 23.0419 12.1347 23.0419 11.3216V10.5002C23.0419 5.50659 18.9938 1.4585 14.0002 1.4585ZM17.9394 22.7933C15.3226 23.1059 12.6777 23.1059 10.0609 22.7933C10.8903 23.9851 12.333 24.7918 14.0001 24.7918C15.6672 24.7918 17.1099 23.9851 17.9394 22.7933ZM6.70854 10.5002C6.70854 6.47309 9.97313 3.2085 14.0002 3.2085C18.0273 3.2085 21.2919 6.47309 21.2919 10.5002V11.3216C21.2919 12.4802 21.6348 13.6128 22.2775 14.5768L23.6175 16.5869C24.5102 17.9259 23.8287 19.746 22.2761 20.1695C16.8578 21.6472 11.1426 21.6472 5.72435 20.1695C4.17171 19.746 3.49021 17.9259 4.38291 16.5869L5.72295 14.5768C6.36561 13.6128 6.70854 12.4802 6.70854 11.3216V10.5002Z" fill="#521600"/>
</svg>
