<svg width="28" height="28" viewBox="0 0 28 28" fill="none" xmlns="http://www.w3.org/2000/svg">
<path d="M14 25.6668C20.4433 25.6668 25.6666 20.4435 25.6666 14.0002C25.6666 7.55684 20.4433 2.3335 14 2.3335C7.55664 2.3335 2.33329 7.55684 2.33329 14.0002C2.33329 15.8665 2.77151 17.6304 3.55066 19.1947C3.75772 19.6104 3.82664 20.0856 3.7066 20.5342L3.01172 23.1313C2.71007 24.2586 3.74147 25.2901 4.86886 24.9884L7.46591 24.2935C7.91455 24.1735 8.3897 24.2424 8.80541 24.4495C10.3697 25.2286 12.1337 25.6668 14 25.6668Z" stroke="white" stroke-width="1.5"/>
<path d="M9.33337 12.25H18.6667" stroke="white" stroke-width="1.5" stroke-linecap="round"/>
<path d="M9.33337 16.3335H15.75" stroke="white" stroke-width="1.5" stroke-linecap="round"/>
</svg>
