<svg width="29" height="27" viewBox="0 0 29 27" fill="none" xmlns="http://www.w3.org/2000/svg">
<path d="M17.8709 21.3464C10.2676 24.178 6.46602 25.5937 4.29459 24.2199C3.77974 23.8942 3.33569 23.4808 2.98583 23.0014C1.51027 20.9798 3.03092 17.4403 6.07222 10.3614C6.72092 8.85152 7.04527 8.09657 7.60313 7.50429C7.74528 7.35337 7.8979 7.21128 8.06001 7.07892C8.69615 6.55954 9.50703 6.25756 11.1288 5.65359C18.732 2.82204 22.5337 1.40626 24.7051 2.78006C25.2199 3.10579 25.664 3.51922 26.0138 3.99856C27.4894 6.02024 25.9688 9.55968 22.9275 16.6386C22.2788 18.1485 21.9544 18.9034 21.3965 19.4957C21.2544 19.6466 21.1018 19.7887 20.9397 19.9211C20.3035 20.4405 19.4926 20.7424 17.8709 21.3464Z" stroke="#A4A4A4" stroke-width="1.5"/>
<ellipse cx="14.5" cy="13.5" rx="3.625" ry="3.375" stroke="#A4A4A4" stroke-width="1.5"/>
</svg>
