<svg width="32" height="30" viewBox="0 0 32 30" fill="none" xmlns="http://www.w3.org/2000/svg">
<g clip-path="url(#clip0_106_1468)">
<path fill-rule="evenodd" clip-rule="evenodd" d="M6.81471 15C6.81471 14.0257 6.98517 13.0915 7.28977 12.2154L1.96104 8.35498C0.922463 10.3554 0.337463 12.6096 0.337463 15C0.337463 17.3885 0.921969 19.6411 1.95881 21.6403L7.28458 17.7724C6.98294 16.9003 6.81471 15.9696 6.81471 15Z" fill="#FBBC05"/>
<path fill-rule="evenodd" clip-rule="evenodd" d="M16.1708 6.13641C18.4018 6.13641 20.417 6.88641 22.0003 8.11359L26.6062 3.75C23.7995 1.4318 20.2011 0 16.1708 0C9.91365 0 4.536 3.39469 1.96106 8.355L7.28955 12.2154C8.51736 8.67961 12.0172 6.13641 16.1708 6.13641Z" fill="#EA4335"/>
<path fill-rule="evenodd" clip-rule="evenodd" d="M16.1708 23.8637C12.0175 23.8637 8.51761 21.3204 7.2898 17.7847L1.96106 21.6444C4.536 26.6054 9.91365 30.0001 16.1708 30.0001C20.0326 30.0001 23.7197 28.699 26.4868 26.2615L21.4289 22.5519C20.0017 23.4047 18.2044 23.8637 16.1708 23.8637Z" fill="#34A853"/>
<path fill-rule="evenodd" clip-rule="evenodd" d="M31.2842 14.9999C31.2842 14.1135 31.1402 13.1589 30.9242 12.2727H16.1708V18.0681H24.6632C24.2385 20.0441 23.0828 21.5631 21.4289 22.5517L26.4868 26.2614C29.3936 23.702 31.2842 19.8892 31.2842 14.9999Z" fill="#4285F4"/>
</g>
<defs>
<clipPath id="clip0_106_1468">
<rect width="31.6216" height="30" fill="white"/>
</clipPath>
</defs>
</svg>
