<svg width="32" height="31" viewBox="0 0 32 31" fill="none" xmlns="http://www.w3.org/2000/svg">
<path d="M12.0053 24.4267L12.4696 23.8377L12.0053 24.4267ZM15.9297 7.10514L15.3894 7.62524C15.3927 7.62871 15.3961 7.63215 15.3995 7.63556L15.9297 7.10514ZM19.8542 24.4267L20.3185 25.0157L19.8542 24.4267ZM17.9828 10.218C18.2758 10.5108 18.7506 10.5107 19.0435 10.2178C19.3363 9.92482 19.3362 9.44995 19.0433 9.15711L17.9828 10.218ZM12.0053 24.4267L12.4696 23.8377C10.5249 22.3046 8.35992 20.7797 6.64479 18.8484C4.95536 16.9461 3.76306 14.7088 3.76306 11.8022H3.01306H2.26306C2.26306 15.1769 3.66664 17.7539 5.52322 19.8445C7.35408 21.9061 9.68525 23.5528 11.541 25.0157L12.0053 24.4267ZM3.01306 11.8022H3.76306C3.76306 8.94219 5.37948 6.53243 7.60358 5.51578C9.7804 4.52075 12.6752 4.80528 15.3894 7.62524L15.9297 7.10514L16.4701 6.58504C13.372 3.36623 9.80843 2.85866 6.97999 4.15155C4.19883 5.42283 2.26306 8.38099 2.26306 11.8022H3.01306ZM12.0053 24.4267L11.541 25.0157C12.2046 25.5389 12.9031 26.0853 13.6077 26.497C14.3119 26.9086 15.0935 27.2293 15.9297 27.2293V26.4793V25.7293C15.4743 25.7293 14.9642 25.5524 14.3644 25.2019C13.7649 24.8516 13.1471 24.3718 12.4696 23.8377L12.0053 24.4267ZM19.8542 24.4267L20.3185 25.0157C22.1742 23.5528 24.5054 21.9061 26.3362 19.8445C28.1928 17.7539 29.5964 15.1769 29.5964 11.8022H28.8464H28.0964C28.0964 14.7088 26.9041 16.9461 25.2147 18.8484C23.4995 20.7797 21.3346 22.3046 19.3898 23.8377L19.8542 24.4267ZM28.8464 11.8022H29.5964C29.5964 8.38099 27.6606 5.42283 24.8795 4.15155C22.051 2.85866 18.4875 3.36623 15.3894 6.58504L15.9297 7.10514L16.4701 7.62524C19.1843 4.80528 22.0791 4.52075 24.2559 5.51578C26.48 6.53243 28.0964 8.94219 28.0964 11.8022H28.8464ZM19.8542 24.4267L19.3898 23.8377C18.7124 24.3718 18.0945 24.8516 17.495 25.2019C16.8953 25.5524 16.3852 25.7293 15.9297 25.7293V26.4793V27.2293C16.766 27.2293 17.5475 26.9086 18.2518 26.497C18.9563 26.0853 19.6548 25.5389 20.3185 25.0157L19.8542 24.4267ZM15.9297 7.10514L15.3995 7.63556L17.9828 10.218L18.5131 9.68754L19.0433 9.15711L16.46 6.57471L15.9297 7.10514Z" fill="white"/>
</svg>
