<svg width="28" height="28" viewBox="0 0 28 28" fill="none" xmlns="http://www.w3.org/2000/svg">
<path d="M15.1668 18.6668C15.1668 19.3112 14.6445 19.8335 14.0002 19.8335C13.3558 19.8335 12.8335 19.3112 12.8335 18.6668C12.8335 18.0225 13.3558 17.5002 14.0002 17.5002C14.6445 17.5002 15.1668 18.0225 15.1668 18.6668Z" fill="#521600"/>
<path fill-rule="evenodd" clip-rule="evenodd" d="M24.4076 1.63932C24.6884 1.85476 24.8117 2.21812 24.7201 2.55997L23.5588 6.8943L25.7708 5.61718C26.1893 5.37555 26.7244 5.51895 26.9661 5.93745C27.2077 6.35596 27.0643 6.8911 26.6458 7.13272L22.6043 9.46606C22.2978 9.64301 21.9149 9.61791 21.6342 9.40247C21.3534 9.18703 21.23 8.82366 21.3216 8.48182L22.483 4.14749L20.271 5.42461C19.8525 5.66623 19.3173 5.52284 19.0757 5.10433C18.8341 4.68583 18.9775 4.15069 19.396 3.90906L23.4374 1.57573C23.7439 1.39878 24.1268 1.42387 24.4076 1.63932ZM13.9332 1.4585L14.0002 1.4585C14.4834 1.4585 14.8752 1.85025 14.8752 2.3335C14.8752 2.81675 14.4834 3.2085 14.0002 3.2085C11.2256 3.2085 9.23264 3.21036 7.716 3.41426C6.22453 3.61479 5.32536 3.99616 4.66076 4.66076C3.99616 5.32536 3.61478 6.22453 3.41426 7.716C3.21035 9.23265 3.2085 11.2256 3.2085 14.0002C3.2085 16.7748 3.21035 18.7677 3.41426 20.2843C3.61478 21.7758 3.99616 22.675 4.66076 23.3396C5.32536 24.0042 6.22453 24.3855 7.716 24.5861C9.23264 24.79 11.2256 24.7918 14.0002 24.7918C16.7748 24.7918 18.7677 24.79 20.2843 24.5861C21.7758 24.3855 22.675 24.0042 23.3396 23.3396C24.0042 22.675 24.3855 21.7758 24.5861 20.2843C24.79 18.7677 24.7918 16.7748 24.7918 14.0002C24.7918 13.5169 25.1836 13.1252 25.6668 13.1252C26.1501 13.1252 26.5418 13.5169 26.5418 14.0002V14.0671C26.5418 16.7602 26.5419 18.8708 26.3205 20.5175C26.0938 22.203 25.6209 23.5331 24.577 24.577C23.5331 25.621 22.203 26.0938 20.5175 26.3205C18.8708 26.5419 16.7602 26.5418 14.0671 26.5418H13.9332C11.2401 26.5418 9.12956 26.5419 7.48282 26.3205C5.79729 26.0938 4.46727 25.621 3.42332 24.577C2.37938 23.5331 1.90648 22.203 1.67987 20.5175C1.45847 18.8708 1.45848 16.7602 1.4585 14.0671V13.9332C1.45848 11.2401 1.45847 9.12956 1.67987 7.48282C1.90648 5.7973 2.37938 4.46727 3.42332 3.42333C4.46727 2.37938 5.79729 1.90648 7.48282 1.67987C9.12955 1.45847 11.2401 1.45848 13.9332 1.4585ZM15.6318 5.97916C15.8734 5.56065 16.4085 5.41726 16.827 5.65888L18.8478 6.82555C19.1543 7.0025 19.324 7.34666 19.2778 7.69753C19.2316 8.04841 18.9786 8.33691 18.6367 8.42851L17.4898 8.73583L17.6811 8.84628C18.0996 9.0879 18.243 9.62304 18.0014 10.0415C17.7597 10.4601 17.2246 10.6034 16.8061 10.3618L14.7854 9.19515C14.4789 9.0182 14.3092 8.67405 14.3554 8.32317C14.4016 7.97229 14.6546 7.68379 14.9964 7.5922L16.1433 7.28488L15.952 7.17443C15.5335 6.9328 15.3901 6.39766 15.6318 5.97916ZM6.99837 12.1829C7.35767 11.8598 7.91091 11.8891 8.23407 12.2484C8.77641 12.8514 9.3598 13.1252 9.91683 13.1252C10.4739 13.1252 11.0573 12.8514 11.5996 12.2484C11.9227 11.8891 12.476 11.8598 12.8353 12.1829C13.1946 12.5061 13.2239 13.0593 12.9007 13.4186C12.1203 14.2864 11.0949 14.8752 9.91683 14.8752C8.73874 14.8752 7.71339 14.2864 6.93292 13.4186C6.60976 13.0593 6.63906 12.5061 6.99837 12.1829ZM15.165 12.1829C15.5243 11.8598 16.0776 11.8891 16.4007 12.2484C16.9431 12.8514 17.5265 13.1252 18.0835 13.1252C18.6405 13.1252 19.2239 12.8514 19.7663 12.2484C20.0894 11.8891 20.6427 11.8598 21.002 12.1829C21.3613 12.5061 21.3906 13.0593 21.0674 13.4186C20.2869 14.2864 19.2616 14.8752 18.0835 14.8752C16.9054 14.8752 15.8801 14.2864 15.0996 13.4186C14.7764 13.0593 14.8057 12.5061 15.165 12.1829Z" fill="#521600"/>
</svg>
