<svg width="20" height="22" viewBox="0 0 20 22" fill="none" xmlns="http://www.w3.org/2000/svg">
<path fill-rule="evenodd" clip-rule="evenodd" d="M3 6.75C3 3.02208 6.02208 0 9.75 0C13.4779 0 16.5 3.02208 16.5 6.75V11.75C16.5 15.4779 13.4779 18.5 9.75 18.5C6.02208 18.5 3 15.4779 3 11.75V6.75ZM9.75 1.5C6.85051 1.5 4.5 3.8505 4.5 6.75V11.75C4.5 14.6495 6.85051 17 9.75 17C12.6495 17 15 14.6495 15 11.75V6.75C15 3.85051 12.6495 1.5 9.75 1.5ZM8.26479 5.79546C7.97779 6.06681 7.52532 6.06971 7.23474 5.79498C6.93375 5.51042 6.92045 5.03573 7.20502 4.73474L7.73878 5.23939C7.20502 4.73474 7.20543 4.73431 7.20583 4.73388L7.20666 4.733L7.20836 4.73122L7.21192 4.72753L7.21967 4.71964C7.22512 4.71416 7.23113 4.70826 7.23774 4.70195C7.25094 4.68935 7.26647 4.67517 7.28447 4.6597C7.3205 4.62874 7.36625 4.59274 7.42283 4.55384C7.5363 4.47584 7.69135 4.3875 7.89609 4.30471C8.30654 4.13872 8.90386 4 9.75 4C10.5961 4 11.1935 4.13871 11.6039 4.30471C11.8087 4.3875 11.9637 4.47583 12.0772 4.55384C12.1337 4.59274 12.1795 4.62874 12.2155 4.6597C12.2335 4.67517 12.2491 4.68935 12.2623 4.70195C12.2689 4.70826 12.2749 4.71416 12.2803 4.71964L12.2881 4.72753L12.2916 4.73122L12.2933 4.733L12.2942 4.73388C12.2946 4.73431 12.295 4.73474 11.7612 5.23939L12.295 4.73474C12.5796 5.03573 12.5662 5.51042 12.2653 5.79498C11.9747 6.06971 11.5222 6.06681 11.2352 5.79546C11.2333 5.79403 11.2307 5.79216 11.2274 5.78991C11.2045 5.77416 11.1459 5.7375 11.0415 5.69529C10.8338 5.61128 10.4311 5.5 9.75 5.5C9.06887 5.5 8.66619 5.61128 8.45846 5.69529C8.35411 5.7375 8.29552 5.77416 8.27262 5.78991C8.26934 5.79216 8.26674 5.79402 8.26479 5.79546ZM11.2061 5.76645L11.2066 5.76695L11.2069 5.76721C11.2066 5.76696 11.2064 5.76671 11.2061 5.76645ZM8.26479 8.79545C7.97779 9.06681 7.52532 9.06971 7.23474 8.79498C6.93375 8.51042 6.92045 8.03573 7.20502 7.73474L7.75 8.25C7.20502 7.73474 7.20542 7.73431 7.20583 7.73388L7.20666 7.733L7.20836 7.73122L7.21192 7.72753L7.21967 7.71964C7.22512 7.71416 7.23113 7.70826 7.23774 7.70195C7.25094 7.68935 7.26647 7.67517 7.28447 7.6597C7.3205 7.62874 7.36625 7.59274 7.42283 7.55384C7.5363 7.47584 7.69135 7.3875 7.89609 7.30471C8.30654 7.13872 8.90386 7 9.75 7C10.5961 7 11.1935 7.13872 11.6039 7.30471C11.8087 7.3875 11.9637 7.47584 12.0772 7.55384C12.1337 7.59274 12.1795 7.62874 12.2155 7.6597C12.2335 7.67517 12.2491 7.68935 12.2623 7.70195C12.2689 7.70826 12.2749 7.71416 12.2803 7.71964L12.2881 7.72753L12.2916 7.73122L12.2933 7.733L12.2942 7.73388C12.2946 7.73431 12.295 7.73474 11.75 8.25L12.295 7.73474C12.5796 8.03573 12.5662 8.51042 12.2653 8.79498C11.9747 9.06971 11.5222 9.06681 11.2352 8.79546C11.2333 8.79403 11.2307 8.79217 11.2274 8.78991C11.2045 8.77417 11.1459 8.7375 11.0415 8.6953C10.8338 8.61129 10.4311 8.5 9.75 8.5C9.06887 8.5 8.66619 8.61129 8.45846 8.6953C8.35411 8.7375 8.29552 8.77417 8.27262 8.78991C8.26934 8.79216 8.26674 8.79402 8.26479 8.79545ZM11.2067 8.76704C11.2066 8.76689 11.2064 8.76675 11.2063 8.76661C11.2061 8.76644 11.206 8.76627 11.2058 8.7661C11.2058 8.7661 11.2058 8.76611 11.2058 8.76611L11.2063 8.76661L11.2066 8.76695L11.2067 8.76704ZM0.75 9C1.16421 9 1.5 9.33579 1.5 9.75V11.75C1.5 16.3063 5.19365 20 9.75 20C14.3063 20 18 16.3063 18 11.75V9.75C18 9.33579 18.3358 9 18.75 9C19.1642 9 19.5 9.33579 19.5 9.75V11.75C19.5 17.1348 15.1348 21.5 9.75 21.5C4.36522 21.5 0 17.1348 0 11.75V9.75C0 9.33579 0.335786 9 0.75 9Z" fill="#FF4400"/>
</svg>
