<svg width="28" height="28" viewBox="0 0 28 28" fill="none" xmlns="http://www.w3.org/2000/svg">
<path fill-rule="evenodd" clip-rule="evenodd" d="M13.9395 1.4585H14.0608C15.1091 1.45846 15.9831 1.45843 16.6771 1.55173C17.4095 1.6502 18.0708 1.86682 18.6021 2.3982C19.1335 2.92958 19.3501 3.59085 19.4486 4.32327C19.5176 4.83614 19.5355 5.44743 19.5402 6.15471C20.2968 6.179 20.9713 6.22323 21.5707 6.30382C22.9385 6.48772 24.0456 6.87519 24.9187 7.74828C25.7918 8.62137 26.1793 9.72848 26.3632 11.0963C26.5419 12.4254 26.5418 14.1236 26.5418 16.2677V16.3993C26.5418 18.5434 26.5419 20.2416 26.3632 21.5707C26.1793 22.9385 25.7918 24.0456 24.9187 24.9187C24.0456 25.7918 22.9385 26.1793 21.5707 26.3632C20.2416 26.5419 18.5434 26.5418 16.3993 26.5418H11.601C9.45696 26.5418 7.75872 26.5419 6.42964 26.3632C5.06181 26.1793 3.9547 25.7918 3.08161 24.9187C2.20852 24.0456 1.82105 22.9385 1.63715 21.5707C1.45846 20.2416 1.45848 18.5434 1.4585 16.3993V16.2677C1.45848 14.1236 1.45846 12.4254 1.63715 11.0963C1.82105 9.72848 2.20852 8.62137 3.08161 7.74828C3.9547 6.87519 5.06181 6.48772 6.42964 6.30382C7.02904 6.22323 7.70353 6.179 8.46013 6.15471C8.4648 5.44743 8.48277 4.83614 8.55173 4.32327C8.6502 3.59085 8.86681 2.92958 9.3982 2.3982C9.92958 1.86682 10.5908 1.6502 11.3233 1.55173C12.0172 1.45843 12.8913 1.45846 13.9395 1.4585ZM10.2106 6.12723C10.6517 6.12516 11.1149 6.12516 11.601 6.12516H16.3993C16.8854 6.12516 17.3486 6.12516 17.7897 6.12723C17.7848 5.46186 17.7685 4.95996 17.7142 4.55646C17.6418 4.01808 17.5167 3.78767 17.3647 3.63563C17.2127 3.4836 16.9822 3.35851 16.4439 3.28612C15.8803 3.21036 15.1248 3.2085 14.0002 3.2085C12.8755 3.2085 12.12 3.21036 11.5565 3.28612C11.0181 3.35851 10.7877 3.4836 10.6356 3.63563C10.4836 3.78767 10.3585 4.01808 10.2861 4.55646C10.2319 4.95996 10.2155 5.46186 10.2106 6.12723ZM6.66282 8.03822C5.48905 8.19603 4.8128 8.49197 4.31905 8.98572C3.82531 9.47946 3.52936 10.1557 3.37155 11.3295C3.21036 12.5284 3.2085 14.1089 3.2085 16.3335C3.2085 18.5581 3.21036 20.1386 3.37155 21.3375C3.52936 22.5113 3.82531 23.1875 4.31905 23.6813C4.81279 24.175 5.48905 24.471 6.66282 24.6288C7.86176 24.79 9.44221 24.7918 11.6668 24.7918H16.3335C18.5581 24.7918 20.1386 24.79 21.3375 24.6288C22.5113 24.471 23.1875 24.175 23.6813 23.6813C24.175 23.1875 24.471 22.5113 24.6288 21.3375C24.79 20.1386 24.7918 18.5581 24.7918 16.3335C24.7918 14.1089 24.79 12.5284 24.6288 11.3295C24.471 10.1557 24.175 9.47946 23.6813 8.98572C23.1875 8.49197 22.5113 8.19603 21.3375 8.03822C20.1386 7.87702 18.5581 7.87517 16.3335 7.87517H11.6668C9.44221 7.87517 7.86176 7.87702 6.66282 8.03822Z" fill="#521600"/>
<path d="M19.8335 10.5002C19.8335 11.1445 19.3112 11.6668 18.6668 11.6668C18.0225 11.6668 17.5002 11.1445 17.5002 10.5002C17.5002 9.85583 18.0225 9.3335 18.6668 9.3335C19.3112 9.3335 19.8335 9.85583 19.8335 10.5002Z" fill="#521600"/>
<path d="M10.5002 10.5002C10.5002 11.1445 9.97783 11.6668 9.3335 11.6668C8.68917 11.6668 8.16683 11.1445 8.16683 10.5002C8.16683 9.85583 8.68917 9.3335 9.3335 9.3335C9.97783 9.3335 10.5002 9.85583 10.5002 10.5002Z" fill="#521600"/>
</svg>
