<svg width="28" height="28" viewBox="0 0 28 28" fill="none" xmlns="http://www.w3.org/2000/svg">
<path d="M21.3375 3.37155C20.1386 3.21036 18.5581 3.2085 16.3335 3.2085C15.8503 3.2085 15.4585 2.81675 15.4585 2.3335C15.4585 1.85025 15.8503 1.4585 16.3335 1.4585H16.3993C18.5434 1.45848 20.2416 1.45846 21.5707 1.63715C22.9385 1.82105 24.0456 2.20852 24.9187 3.08161C25.7172 3.88012 26.1533 4.63959 26.358 5.81248C26.5419 6.86682 26.5419 8.28875 26.5418 10.3878L26.5418 10.5002C26.5418 10.9834 26.1501 11.3752 25.6668 11.3752C25.1836 11.3752 24.7918 10.9834 24.7918 10.5002C24.7918 8.26123 24.7885 6.99853 24.634 6.11331C24.497 5.32793 24.2496 4.88738 23.6813 4.31905C23.1875 3.82531 22.5113 3.52936 21.3375 3.37155Z" fill="#521600"/>
<path d="M3.2085 17.5002C3.2085 17.0169 2.81675 16.6252 2.3335 16.6252C1.85025 16.6252 1.4585 17.0169 1.4585 17.5002L1.4585 17.6125C1.45844 19.7116 1.45841 21.1335 1.64238 22.1878C1.84705 23.3607 2.28311 24.1202 3.08162 24.9187C3.95471 25.7918 5.06182 26.1793 6.42964 26.3632C7.75873 26.5419 9.45697 26.5419 11.601 26.5418H11.6668C12.1501 26.5418 12.5418 26.1501 12.5418 25.6668C12.5418 25.1836 12.1501 24.7918 11.6668 24.7918C9.44221 24.7918 7.86177 24.79 6.66283 24.6288C5.48905 24.471 4.8128 24.175 4.31906 23.6813C3.75073 23.113 3.50338 22.6724 3.36633 21.887C3.21186 21.0018 3.2085 19.7391 3.2085 17.5002Z" fill="#521600"/>
<path d="M26.5418 17.5002C26.5418 17.0169 26.1501 16.6252 25.6668 16.6252C25.1836 16.6252 24.7918 17.0169 24.7918 17.5002C24.7918 19.7391 24.7885 21.0018 24.634 21.887C24.497 22.6724 24.2496 23.113 23.6813 23.6813C23.1875 24.175 22.5113 24.471 21.3375 24.6288C20.1386 24.79 18.5581 24.7918 16.3335 24.7918C15.8503 24.7918 15.4585 25.1836 15.4585 25.6668C15.4585 26.1501 15.8503 26.5418 16.3335 26.5418H16.3993C18.5434 26.5419 20.2416 26.5419 21.5707 26.3632C22.9385 26.1793 24.0456 25.7918 24.9187 24.9187C25.7172 24.1202 26.1533 23.3607 26.358 22.1878C26.5419 21.1335 26.5419 19.7116 26.5418 17.6125L26.5418 17.5002Z" fill="#521600"/>
<path d="M11.6668 1.4585H11.601C9.45697 1.45848 7.75872 1.45846 6.42964 1.63715C5.06182 1.82105 3.95471 2.20852 3.08162 3.08161C2.28311 3.88012 1.84705 4.63959 1.64238 5.81248C1.45841 6.86681 1.45844 8.28873 1.4585 10.3877L1.4585 10.5002C1.4585 10.9834 1.85025 11.3752 2.3335 11.3752C2.81675 11.3752 3.2085 10.9834 3.2085 10.5002C3.2085 8.26123 3.21186 6.99853 3.36633 6.11331C3.50338 5.32793 3.75073 4.88738 4.31906 4.31905C4.8128 3.82531 5.48905 3.52936 6.66283 3.37155C7.86177 3.21036 9.44221 3.2085 11.6668 3.2085C12.1501 3.2085 12.5418 2.81675 12.5418 2.3335C12.5418 1.85025 12.1501 1.4585 11.6668 1.4585Z" fill="#521600"/>
<path fill-rule="evenodd" clip-rule="evenodd" d="M14.0002 10.7918C12.2283 10.7918 10.7918 12.2283 10.7918 14.0002C10.7918 15.7721 12.2283 17.2085 14.0002 17.2085C15.7721 17.2085 17.2085 15.7721 17.2085 14.0002C17.2085 12.2283 15.7721 10.7918 14.0002 10.7918ZM12.5418 14.0002C12.5418 13.1947 13.1948 12.5418 14.0002 12.5418C14.8056 12.5418 15.4585 13.1947 15.4585 14.0002C15.4585 14.8056 14.8056 15.4585 14.0002 15.4585C13.1948 15.4585 12.5418 14.8056 12.5418 14.0002Z" fill="#521600"/>
<path fill-rule="evenodd" clip-rule="evenodd" d="M6.21194 11.0257C7.69357 9.3071 10.2393 7.29183 14.0002 7.29183C17.7611 7.29183 20.3068 9.3071 21.7884 11.0257L21.8261 11.0694C22.1422 11.4359 22.4674 11.8127 22.6908 12.2642C22.9406 12.7691 23.0418 13.3111 23.0418 14.0002C23.0418 14.6892 22.9406 15.2312 22.6908 15.7361C22.4674 16.1877 22.1422 16.5645 21.8261 16.9309L21.7884 16.9746C20.3068 18.6932 17.7611 20.7085 14.0002 20.7085C10.2393 20.7085 7.69357 18.6932 6.21194 16.9746L6.17429 16.9309C5.85811 16.5645 5.53297 16.1876 5.30954 15.7361C5.05972 15.2312 4.9585 14.6892 4.9585 14.0002C4.9585 13.3111 5.05972 12.7691 5.30954 12.2642C5.53297 11.8127 5.8581 11.4358 6.17428 11.0694L6.21194 11.0257ZM14.0002 9.04183C10.9307 9.04183 8.82765 10.6717 7.53739 12.1684C7.17111 12.5933 6.99279 12.8084 6.87804 13.0403C6.78081 13.2368 6.7085 13.4938 6.7085 14.0002C6.7085 14.5065 6.78081 14.7635 6.87804 14.96C6.99279 15.1919 7.17111 15.4071 7.53739 15.8319C8.82765 17.3286 10.9307 18.9585 14.0002 18.9585C17.0697 18.9585 19.1727 17.3286 20.4629 15.8319C20.8292 15.4071 21.0075 15.1919 21.1223 14.96C21.2195 14.7635 21.2918 14.5065 21.2918 14.0002C21.2918 13.4938 21.2195 13.2368 21.1223 13.0403C21.0075 12.8084 20.8292 12.5933 20.4629 12.1684C19.1727 10.6717 17.0697 9.04183 14.0002 9.04183Z" fill="#521600"/>
</svg>
