<svg width="33" height="33" viewBox="0 0 33 33" fill="none" xmlns="http://www.w3.org/2000/svg">
<g clip-path="url(#clip0_106_811)">
<path d="M18.8973 22.8206L23.3063 20.1382C27.158 17.7948 29.0839 16.6231 28.9516 15.0322C28.8194 13.4412 26.7266 12.6035 22.5409 10.9281L17.7495 9.01036C14.3712 7.65819 12.6821 6.98211 11.7626 7.30915C10.8879 7.62027 10.2474 8.37687 10.0849 9.29095C9.91417 10.2518 10.8598 11.8062 12.7511 14.9149C13.0548 15.414 13.2066 15.6636 13.2833 15.9316C13.3575 16.1914 13.3801 16.4632 13.3497 16.7316C13.3184 17.0086 13.2099 17.2799 12.9928 17.8223C11.6406 21.2005 10.9645 22.8897 11.2916 23.8091C11.6027 24.6839 12.3593 25.3244 13.2734 25.4868C14.2342 25.6576 15.7886 24.7119 18.8973 22.8206Z" stroke="#C20001" stroke-width="1.5"/>
<path d="M21.3322 16.4178C21.7452 16.3858 22.054 16.025 22.022 15.6121C21.99 15.1991 21.6292 14.8903 21.2162 14.9223L21.3322 16.4178ZM13.876 16.2437L13.934 16.9914L21.3322 16.4178L21.2742 15.67L21.2162 14.9223L13.818 15.4959L13.876 16.2437Z" fill="#C20001"/>
</g>
<defs>
<clipPath id="clip0_106_811">
<rect width="22.8197" height="22.8197" fill="white" transform="translate(15) rotate(40.249)"/>
</clipPath>
</defs>
</svg>
