<svg width="36" height="37" viewBox="0 0 36 37" fill="none" xmlns="http://www.w3.org/2000/svg">
<path d="M25.474 24.3794L28.6864 18.1346C31.4927 12.6792 32.8958 9.95156 31.6124 8.19886C30.329 6.44616 27.305 6.96026 21.2569 7.98846L14.3337 9.16545C9.45234 9.9953 7.01167 10.4102 6.17672 11.4428C5.38242 12.4252 5.17637 13.7582 5.63701 14.9345C6.12123 16.1711 8.32272 17.3035 12.7257 19.5685C13.4327 19.9321 13.7862 20.114 14.0654 20.3706C14.3361 20.6194 14.5553 20.9188 14.7108 21.252C14.8712 21.5957 14.9378 21.9876 15.071 22.7714C15.9009 27.6527 16.3158 30.0934 17.3484 30.9283C18.3308 31.7226 19.6638 31.9287 20.8401 31.4681C22.0767 30.9838 23.2091 28.7823 25.474 24.3794Z" stroke="white" stroke-width="1.5"/>
<path d="M23.5936 14.9995C23.9291 14.7566 24.0043 14.2878 23.7614 13.9522C23.5186 13.6167 23.0497 13.5415 22.7141 13.7844L23.5936 14.9995ZM14.9744 20.312L15.4141 20.9196L23.5936 14.9995L23.1539 14.3919L22.7141 13.7844L14.5346 19.7044L14.9744 20.312Z" fill="white"/>
</svg>
