<svg width="28" height="28" viewBox="0 0 28 28" fill="none" xmlns="http://www.w3.org/2000/svg">
<path fill-rule="evenodd" clip-rule="evenodd" d="M18.18 1.65645C19.7107 2.17158 20.7082 3.61186 20.7082 5.50014C20.7082 6.68728 20.0334 7.77994 19.2813 8.6517C18.5083 9.54784 17.5298 10.352 16.674 10.9759C16.6373 11.0026 16.6009 11.0292 16.5649 11.0556C15.7342 11.6625 15.0489 12.1632 13.9999 12.1632C12.9509 12.1632 12.2656 11.6625 11.435 11.0556C11.3989 11.0292 11.3625 11.0026 11.3258 10.9759C10.47 10.352 9.49154 9.54782 8.71847 8.65169C7.96643 7.77993 7.29157 6.68728 7.29157 5.50016C7.29157 3.61187 8.2891 2.17159 9.81982 1.65645C11.1254 1.21708 12.6451 1.50709 13.9999 2.49327C15.3547 1.50709 16.8744 1.21708 18.18 1.65645ZM17.6218 3.31505C16.8611 3.05905 15.7267 3.22467 14.592 4.26765C14.2573 4.57538 13.7426 4.57538 13.4078 4.26765C12.2731 3.22467 11.1387 3.05905 10.378 3.31505C9.64826 3.56063 9.04157 4.26508 9.04157 5.50016C9.04157 6.04565 9.37351 6.73188 10.0435 7.50858C10.6925 8.2609 11.5515 8.97474 12.3567 9.56174C13.3404 10.2788 13.5741 10.4132 13.9999 10.4132C14.4257 10.4132 14.6595 10.2788 15.6431 9.56175C16.4484 8.97476 17.3073 8.26092 17.9563 7.5086C18.6263 6.73191 18.9582 6.04566 18.9582 5.50014C18.9582 4.26507 18.3516 3.56062 17.6218 3.31505ZM10.1311 16.8558C12.3079 16.4341 14.6382 16.5287 16.5237 17.6533C16.7886 17.8113 17.0368 18.0081 17.2534 18.2514C17.6919 18.744 17.9184 19.3561 17.9291 19.9699C18.1522 19.826 18.3757 19.6661 18.6028 19.4946L20.7112 17.9019C21.7665 17.1047 23.3003 17.1045 24.3558 17.9015C25.331 18.6379 25.7199 19.9595 25.0217 21.0786C24.5255 21.874 23.7782 22.9741 23.0177 23.6785C22.249 24.3905 21.1549 24.9891 20.3273 25.3886C19.3222 25.8737 18.2367 26.1419 17.1812 26.3127C15.0238 26.662 12.7789 26.6085 10.6457 26.169C9.55559 25.9445 8.42271 25.8277 7.30316 25.8277H4.66657C4.18333 25.8277 3.79157 25.436 3.79157 24.9527C3.79157 24.4695 4.18333 24.0777 4.66657 24.0777H7.30316C8.54229 24.0777 9.79347 24.2067 10.9988 24.455C12.9262 24.8521 14.9567 24.9 16.9015 24.5852C17.8686 24.4287 18.7717 24.1962 19.5666 23.8125C20.3639 23.4277 21.2604 22.9208 21.8286 22.3945C22.4032 21.8624 23.0463 20.9388 23.5369 20.1523C23.685 19.915 23.6645 19.5724 23.3013 19.2981C22.8699 18.9724 22.1973 18.9725 21.766 19.2983L19.6577 20.891C18.816 21.5268 17.78 22.207 16.4951 22.4119C16.3654 22.4326 16.2304 22.4515 16.0903 22.4682C16.0234 22.4803 15.9539 22.4882 15.882 22.4909C15.226 22.5561 14.4662 22.5713 13.628 22.4921C13.1469 22.4467 12.7937 22.0199 12.8392 21.5387C12.8846 21.0576 13.3114 20.7045 13.7926 20.7499C14.5246 20.819 15.1813 20.8037 15.7385 20.7465C15.7498 20.7454 15.7611 20.7442 15.7723 20.743C15.7956 20.7295 15.8311 20.7048 15.8777 20.6641C16.2505 20.3388 16.2837 19.7941 15.9463 19.4151C15.8608 19.319 15.7555 19.2328 15.6273 19.1563C14.2493 18.3344 12.4088 18.1971 10.464 18.5738C8.5302 18.9485 6.60897 19.8115 5.17274 20.8301C4.77855 21.1096 4.23238 21.0167 3.95284 20.6225C3.67329 20.2283 3.76622 19.6821 4.16041 19.4026C5.79183 18.2456 7.94327 17.2797 10.1311 16.8558Z" fill="#521600"/>
</svg>
