<svg width="29" height="27" viewBox="0 0 29 27" fill="none" xmlns="http://www.w3.org/2000/svg">
<path d="M16.9165 16.3125C16.9165 14.4485 18.5394 12.9375 20.5415 12.9375C22.5435 12.9375 24.1665 14.4485 24.1665 16.3125C24.1665 18.1765 22.5435 19.6875 20.5415 19.6875C18.5394 19.6875 16.9165 18.1765 16.9165 16.3125Z" stroke="#A4A4A4" stroke-width="1.5"/>
<path d="M4.83347 10.6875C4.83347 12.5515 6.45643 14.0625 8.45847 14.0625C10.4605 14.0625 12.0835 12.5515 12.0835 10.6875C12.0835 8.82354 10.4605 7.3125 8.45847 7.3125C6.45643 7.3125 4.83347 8.82354 4.83347 10.6875Z" stroke="#A4A4A4" stroke-width="1.5"/>
<path d="M20.4917 10.125L20.4917 2.25" stroke="#A4A4A4" stroke-width="1.5" stroke-linecap="round"/>
<path d="M8.4082 16.875L8.4082 24.75" stroke="#A4A4A4" stroke-width="1.5" stroke-linecap="round"/>
<path d="M20.4917 24.75L20.4917 22.5" stroke="#A4A4A4" stroke-width="1.5" stroke-linecap="round"/>
<path d="M8.4082 2.25L8.4082 4.5" stroke="#A4A4A4" stroke-width="1.5" stroke-linecap="round"/>
</svg>
